<?xml version="1.0" encoding="utf-8"?>
<!-- Generator: Adobe Illustrator 25.4.0, SVG Export Plug-In . SVG Version: 6.00 Build 0)  -->
<svg version="1.1" id="Capa_1" xmlns="http://www.w3.org/2000/svg" xmlns:xlink="http://www.w3.org/1999/xlink" x="0px" y="0px"
	 viewBox="0 0 522 216" style="enable-background:new 0 0 522 216;" xml:space="preserve">
<style type="text/css">
	.st0{fill:#4DA6DE;}
	.st1{fill:none;}
</style>
<path class="st0" d="M282.7,91.5c-1.5-1.8-3.4-3.2-5.5-4.2c-2.4-1-4.9-1.5-7.5-1.5c-5.4-0.1-10.6,2.2-14.2,6.3c-1.8,2-3.2,4.4-4.2,7
	c-2,5.7-2,12,0,17.7c0.9,2.6,2.3,4.9,4.1,7c1.7,1.9,3.8,3.5,6.2,4.6c2.4,1.1,5,1.7,7.6,1.6c2.9,0.1,5.7-0.6,8.3-1.9
	c2.4-1.3,4.4-3.2,5.9-5.4l12.6,9.5c-2.8,4-6.6,7.1-11.1,9c-4.3,1.9-9,2.9-13.8,2.9c-5.1,0.1-10.1-0.8-14.9-2.5
	c-4.4-1.6-8.4-4-11.8-7.2c-3.3-3.2-6-7.1-7.7-11.3c-3.7-9.6-3.7-20.3,0-29.9c1.7-4.3,4.4-8.2,7.7-11.4c3.4-3.2,7.4-5.7,11.8-7.2
	c4.8-1.7,9.8-2.6,14.9-2.5c2,0,4.1,0.2,6.1,0.5c2.1,0.4,4.2,0.9,6.2,1.7c2.1,0.8,4,1.8,5.9,3.1c1.9,1.3,3.6,2.9,5,4.8L282.7,91.5z"
	/>
<path class="st0" d="M349.2,91.5c-1.5-1.8-3.4-3.2-5.5-4.2c-2.4-1-4.9-1.5-7.5-1.5c-5.4,0-10.6,2.2-14.2,6.3c-1.8,2-3.2,4.4-4.2,7
	c-2,5.7-2,12,0,17.7c0.9,2.6,2.3,4.9,4.1,7c1.7,1.9,3.8,3.5,6.2,4.6c2.4,1.1,5,1.7,7.6,1.6c2.9,0.1,5.7-0.6,8.3-1.9
	c2.4-1.3,4.4-3.2,5.9-5.4l12.6,9.4c-2.8,4-6.6,7.1-11.1,9c-4.3,1.9-9,2.9-13.8,2.9c-5.1,0.1-10.1-0.8-14.9-2.5
	c-4.4-1.5-8.4-4-11.8-7.2c-3.3-3.2-6-7.1-7.7-11.4c-3.7-9.6-3.7-20.3,0-29.9c1.7-4.3,4.3-8.2,7.7-11.5c3.4-3.2,7.4-5.7,11.8-7.2
	c4.8-1.7,9.8-2.6,14.9-2.5c2,0,4.1,0.2,6.1,0.5c2.1,0.4,4.2,0.9,6.2,1.7c2.1,0.8,4.1,1.8,5.9,3.1c1.9,1.3,3.6,2.9,5,4.8L349.2,91.5z
	"/>
<path class="st0" d="M371.4,73.6h46.7v14h-31.6v12.8h29.8v14h-29.8v14h33.3v14h-48.5V73.6H371.4z"/>
<path class="st0" d="M428.3,108c-0.1-5.1,0.9-10.2,2.8-15c1.7-4.3,4.4-8.2,7.7-11.4c3.4-3.2,7.4-5.7,11.8-7.2
	c9.6-3.4,20.1-3.4,29.7,0c4.4,1.6,8.4,4.1,11.7,7.3c3.4,3.2,6,7.1,7.8,11.4c3.7,9.6,3.7,20.3,0,29.9c-1.7,4.3-4.4,8.2-7.8,11.5
	c-3.4,3.2-7.4,5.7-11.8,7.2c-9.6,3.4-20.1,3.4-29.7,0c-4.4-1.6-8.4-4-11.8-7.2c-3.3-3.2-6-7.1-7.7-11.4
	C429.2,118.2,428.2,113.1,428.3,108z M444,108c0,3,0.5,6,1.5,8.9c0.9,2.6,2.4,5,4.3,7s4.2,3.6,6.8,4.6c5.7,2.2,11.9,2.2,17.6,0
	c2.5-1,4.8-2.6,6.8-4.6c1.9-2,3.4-4.4,4.3-7c2-5.7,2-12,0-17.7c-0.9-2.6-2.4-5-4.3-7s-4.2-3.6-6.8-4.6c-5.7-2.2-11.9-2.2-17.6,0
	c-2.5,1-4.8,2.6-6.8,4.6c-1.9,2-3.4,4.4-4.3,7C444.5,102,444,105,444,108z"/>
<circle class="st1" cx="108" cy="108" r="9"/>
<path class="st0" d="M156,42.8C120,16.3,69.3,24,42.8,60c-8.4,11.4-13.7,24.9-15.2,39c-0.7,6-0.7,12,0,18c0.7,6.1,2.1,12.2,4.1,18
	c0.7,1.9,1.4,3.7,2.2,5.5c17.9,41,65.7,59.7,106.7,41.7c26.5-11.6,44.8-36.4,48-65.2c0.7-6,0.7-12,0-18c-0.9-8.1-3-16-6.3-23.5
	l-15.7,9.1c1.9,4.6,3.1,9.5,3.9,14.4c0.9,6,0.9,12,0,18c-5,34.4-36.9,58.3-71.3,53.4c-11-1.6-21.3-6-30-12.9
	c-7.6-6-13.8-13.7-18-22.5c-0.6-1.2-1.1-2.4-1.6-3.6c-1.8-4.6-3.1-9.5-3.8-14.4c-5-34.4,18.9-66.4,53.4-71.4c3-0.4,6-0.6,9-0.6
	c19.3,0,37.5,8.8,49.5,24l15.7-9C168.4,53.4,162.6,47.6,156,42.8z"/>
<path class="st0" d="M215.6,99c-1.6-18.9-8.1-37.1-18.9-52.6c-7.4-10.6-16.5-19.7-27.1-27.1l-9,15.6c12.8,9.2,23,21.7,29.5,36.1
	c4,8.9,6.5,18.3,7.5,28c0.3,3,0.4,6,0.4,9s-0.1,6-0.4,9c-4.9,49.5-49,85.6-98.5,80.6c-42.6-4.3-76.4-38-80.6-80.6
	c-0.3-3-0.4-6-0.4-9s0.1-6,0.5-9c5-49.5,49.2-85.5,98.6-80.5c9.6,1,19.1,3.5,27.9,7.5l9-15.6C100-15.1,35.7,8,10.3,62
	C4.8,73.6,1.5,86.2,0.4,99c-0.2,3-0.4,6-0.4,9s0.1,6,0.4,9c5,59.4,57.2,103.6,116.6,98.6c52.5-4.4,94.2-46.1,98.6-98.6
	c0.2-3,0.4-6,0.4-9S215.9,102,215.6,99z"/>
<path class="st0" d="M133.5,117h27.8c1-6,1-12,0-18c-1.6-9.4-5.6-18.1-11.6-25.4c-19-23-53.1-26.2-76-7.2
	C58.7,78.7,51.5,98,54.8,117c1.1,6.3,3.2,12.4,6.5,18c14.9,25.8,47.9,34.7,73.8,19.8c8.2-4.7,15-11.5,19.8-19.8h-23
	c-13.6,12-34,12-47.6,0c-0.5-0.4-1-0.9-1.4-1.3l-0.5-0.5c-4.3-4.4-7.4-9.7-9-15.6l-0.2-0.6c-5-19.3,6.6-38.9,25.9-43.9
	c12.2-3.2,25.2,0.3,34.2,9.2l0.5,0.5c4.3,4.3,7.4,9.7,9,15.6l0.1,0.6h-9.4c-5-14.1-20.4-21.4-34.4-16.5c-14.1,5-21.4,20.4-16.5,34.4
	c2.9,8.2,9.6,14.5,17.9,16.9l0,0l0.4,0.1l0.9,0.2l1,0.2l0.3,0.1h0.1c1.6,0.3,3.2,0.5,4.8,0.5c0.7,0,1.4,0,2-0.1l0.7-0.1
	c0.4,0,0.9-0.1,1.3-0.1l0.9-0.1l1.1-0.2l0.9-0.2l0.5-0.1l0,0C123.8,131.6,130.5,125.3,133.5,117z M108,117c-5,0-9-4-9-9s4-9,9-9
	s9,4,9,9S113,117,108,117z"/>
<image style="overflow:visible;" width="1041" height="111" xlink:href="E11CA87B3D8FE54B.jpg"  transform="matrix(0.24 0 0 0.24 233.76 157.68)">
</image>
</svg>
