<?xml version="1.0" encoding="utf-8"?>
<!-- Generator: Adobe Illustrator 25.4.0, SVG Export Plug-In . SVG Version: 6.00 Build 0)  -->
<svg version="1.1" id="Capa_1" xmlns="http://www.w3.org/2000/svg" xmlns:xlink="http://www.w3.org/1999/xlink" x="0px" y="0px"
	 viewBox="0 0 838 312" style="enable-background:new 0 0 838 312;" xml:space="preserve">
<style type="text/css">
	.st0{fill:#858A93;}
	.st1{fill:#878D96;}
	.st2{fill:#9CA3AF;}
	.st3{fill:#8C929B;}
	.st4{fill:#9198A1;}
</style>
<g>
	<path class="st0" d="M625.73,77.97c-1.5-3.13-6.14-4.57-15.7,0.46c-1.2,0.63-3.72,2.16-4.75,2.92c0.38,1.17,0.67,2.29,0.71,3.5
		c4.58-3.92,7.81-2.72,9.08-1.1c3.46,4.44-15.28,20.62-49.49,42.89c-2.43,3.51-6.09,5.63-10,6.41
		c-63.42,40-170.35,96.33-287.1,140.77l-13.24,38.61C417.39,251.78,637.88,103.3,625.73,77.97"/>
	<path class="st1" d="M307.28,55.36c-36.76,5.94-53.06,50.6-57.63,95.29c-10.41,7.8-11.13,14.25-13.77,22.15
		c2.95-2.23,8.23-5.48,12.3-6.77c-0.51,18.58-9,58.47-28.18,73.54c-22.58,17.74-39.8-5.39-32.08-33.08
		c9.96,9.37,23.29,4.96,34.19-3.38c14.46-11.08,13.99-24.24,6.23-30.8c-10.1-8.54-37.09,3.44-44.21,27.13
		c-11.78-16.45-8.24-28.48-1.15-42.22c-21.37,28,0.64,45.61,0.34,46.41c-18.41,49.32,21.09,66.35,43.13,44.13
		c25.32-25.53,27.82-71.74,29.25-84.62c7.19-2.74,9.61-3.73,17.65-5.68c0,0-9.62,58.88,19.11,51.37
		c23.1-6.04,28.88-59.34,21.95-55.74c-1.33,0.69-0.14,24.08-18.49,36.17c-14.59,9.62-9.34-34.49-9.34-34.49
		c2.16-0.34,5.93,0.04,8.47,0.82c0.67-7.29,1.02-11.22,3.62-17.88c-4.41-1.85-10.27-1.06-10.27-1.06L307.28,55.36z M202.97,179.69
		c8.71-7.89,17.21-8.75,22.45-4.63c5.73,4.5,3.21,16.67-5.35,25.39c-9.22,9.4-22.51,10.27-28.74,5.62
		C186.34,202.35,192.4,189.28,202.97,179.69 M274.57,139.52c-8.52,2.3-14.17,4.1-18.14,6.61c4.48-29.08,20.58-70.93,37.26-74.94
		C293.69,71.18,279.58,117.16,274.57,139.52"/>
	<path class="st1" d="M336.87,73.28c-0.07,0.39-0.59,2.81-1.57,7.24c-0.97,4.44-2.18,9.93-3.63,16.49c-1.44,6.56-3,13.76-4.66,21.61
		c-1.67,7.85-3.25,15.34-4.75,22.46c-1.5,7.12-2.81,13.44-3.92,18.95c-1.11,5.51-1.77,9.28-1.99,11.29
		c-0.62,3.87-0.77,6.54-0.43,8.01c0.33,1.48,0.95,2.14,1.85,2c1.14-0.13,2.58-1.53,4.31-4.19c1.74-2.66,3.48-5.93,5.24-9.81
		c1.75-3.87,3.45-7.95,5.08-12.25c1.63-4.3,2.92-8.15,3.86-11.55c0.62-2.18,1.31-3.71,2.08-4.58c0.77-0.87,1.47-1.18,2.13-0.91
		c0.65,0.26,1.14,0.92,1.48,1.97c0.33,1.06,0.4,2.34,0.22,3.86c-0.27,1.32-0.81,3.35-1.61,6.09c-0.8,2.74-1.82,5.82-3.05,9.22
		c-1.24,3.41-2.63,7.01-4.18,10.79c-1.55,3.79-3.24,7.39-5.07,10.81c-1.83,3.42-3.7,6.53-5.62,9.33c-1.92,2.8-3.9,4.88-5.95,6.24
		c-2.68,1.87-5.05,2.71-7.11,2.51c-2.06-0.19-3.73-1.15-5.01-2.88c-1.28-1.73-2.15-4.03-2.6-6.89c-0.45-2.86-0.5-5.99-0.16-9.38
		c0.18-1.27,0.57-3.63,1.19-7.08c0.62-3.44,1.4-7.56,2.35-12.34c0.94-4.78,1.99-10.03,3.14-15.74c1.15-5.71,2.33-11.46,3.56-17.27
		c1.22-5.8,2.42-11.47,3.58-17.01c1.16-5.53,2.21-10.49,3.16-14.85c0.94-4.36,1.73-7.97,2.37-10.82c0.64-2.85,1.02-4.54,1.15-5.08
		c0.56-2.04,1.5-3.91,2.81-5.61c1.31-1.7,2.67-2.86,4.09-3.46l4.4-1.89c1.42-0.61,2.44-0.45,3.08,0.48
		C337.31,69.97,337.38,71.38,336.87,73.28"/>
	<path class="st1" d="M351.9,178.34c-0.72,0.88-1.46,1.71-2.22,2.5c-1.86,1.94-3.81,3.34-5.84,4.21c-2.84,1.22-5.43,1.19-7.77-0.08
		c-2.34-1.27-4.07-3.62-5.18-7.04c-1.11-3.42-1.39-7.86-0.85-13.31c0.54-5.45,2.25-11.79,5.14-19.03c2.7-6.55,5.62-12.06,8.74-16.52
		c3.12-4.46,6.3-7.95,9.53-10.48c3.23-2.52,6.39-4.12,9.46-4.78c3.07-0.66,5.87-0.57,8.39,0.27c0.63-1.59,1.53-2.99,2.69-4.21
		c1.16-1.22,2.34-2.08,3.56-2.61l4.4-1.89c1.42-0.61,2.46-0.48,3.12,0.37c0.66,0.85,0.75,2.23,0.24,4.12
		c-0.19,0.68-0.63,2.31-1.32,4.88c-0.69,2.58-1.4,5.61-2.12,9.1c-0.72,3.49-1.47,7.11-2.26,10.87c-0.79,3.75-1.37,7.15-1.74,10.19
		c-0.62,3.86-0.76,6.53-0.43,8.01c0.33,1.48,0.95,2.14,1.85,2c1.14-0.13,2.56-1.52,4.24-4.16c1.68-2.64,3.4-5.9,5.16-9.77
		c1.76-3.87,3.45-7.95,5.08-12.25c1.63-4.3,2.97-8.17,4.01-11.61c0.62-2.18,1.31-3.71,2.08-4.58c0.76-0.87,1.48-1.18,2.13-0.91
		c0.65,0.26,1.14,0.92,1.48,1.97c0.33,1.06,0.36,2.36,0.07,3.93c-0.28,1.32-0.79,3.34-1.54,6.06c-0.75,2.72-1.75,5.79-2.98,9.19
		c-1.24,3.41-2.65,7.02-4.26,10.82c-1.61,3.81-3.32,7.43-5.15,10.85c-1.83,3.42-3.7,6.53-5.62,9.34c-1.91,2.8-3.9,4.89-5.95,6.24
		c-2.32,1.59-4.4,2.4-6.25,2.41c-1.85,0.02-3.41-0.54-4.68-1.68c-1.27-1.14-2.26-2.75-2.98-4.84c-0.71-2.09-1.12-4.49-1.21-7.21
		c-1.09,2.5-2.3,5.12-3.64,7.86c-1.35,2.73-2.82,5.32-4.41,7.74C353.93,175.73,352.93,177.08,351.9,178.34 M345.08,148.54
		c-1.26,3.78-1.94,7.28-2.06,10.51c-0.11,3.23,0.23,5.72,1.05,7.47c0.81,1.75,2.02,2.46,3.61,2.13c1.6-0.33,3.53-2.17,5.8-5.55
		c1.66-2.27,3.28-5.21,4.84-8.82c1.57-3.61,3.05-7.36,4.43-11.26c1.39-3.89,2.63-7.69,3.74-11.4c1.1-3.71,1.97-6.78,2.61-9.22
		l0.76-2.85c-2.9-0.32-5.66,0.45-8.28,2.29c-2.63,1.85-5.01,4.25-7.16,7.21c-2.15,2.96-4.03,6.2-5.64,9.7
		C347.18,142.27,345.94,145.53,345.08,148.54"/>
	<path class="st1" d="M460.17,72.16c2.46-1.53,4.68-2.37,6.66-2.5c1.98-0.13,3.45,0.77,4.4,2.7c0.95,1.93,1.23,5.11,0.85,9.53
		c-0.38,4.42-1.64,10.45-3.76,18.07c-1.16,3.74-1.88,6.74-2.15,9.02c-0.28,2.28-0.37,4.03-0.27,5.24c0.1,1.21,0.34,1.98,0.72,2.3
		c0.37,0.32,0.79,0.45,1.24,0.37c1.14-0.13,2.56-1.52,4.24-4.16c1.68-2.64,3.41-5.9,5.16-9.77c1.76-3.87,3.45-7.96,5.08-12.26
		c1.63-4.3,2.92-8.15,3.86-11.55c0.72-2.23,1.47-3.78,2.23-4.65c0.77-0.87,1.48-1.18,2.13-0.91c0.65,0.26,1.14,0.92,1.48,1.98
		c0.33,1.06,0.4,2.34,0.22,3.86c-0.27,1.32-0.81,3.35-1.61,6.09c-0.8,2.74-1.82,5.82-3.05,9.22c-1.24,3.41-2.63,7.01-4.18,10.79
		c-1.55,3.79-3.24,7.39-5.07,10.82c-1.83,3.42-3.7,6.53-5.62,9.33c-1.92,2.8-3.9,4.88-5.96,6.24c-2.78,1.91-5.35,2.78-7.7,2.59
		c-2.36-0.18-4.2-1.34-5.54-3.47c-1.33-2.13-2.07-5.26-2.23-9.39c-0.16-4.13,0.56-9.23,2.15-15.32c1.95-7.19,3.38-12.45,4.28-15.78
		c0.91-3.33,0.7-5-0.63-5.03c-0.98-0.05-2.35,1.16-4.1,3.65c-1.75,2.49-3.63,5.73-5.64,9.71c-2.01,3.98-3.97,8.36-5.87,13.13
		c-1.91,4.78-3.53,9.37-4.88,13.79l-3.38,14.76c-0.41,1.85-1.28,3.67-2.61,5.44c-1.34,1.77-2.72,2.96-4.13,3.57l-4.41,1.89
		c-1.42,0.61-2.45,0.45-3.08-0.47c-0.64-0.92-0.7-2.34-0.2-4.23c0.57-2.88,1.16-5.95,1.8-9.22c0.5-2.73,1.12-5.76,1.86-9.08
		c0.74-3.31,1.59-6.62,2.58-9.92c1.99-7.09,3.43-12.33,4.32-15.71c0.89-3.38,0.67-5.08-0.66-5.11c-0.74-0.04-1.76,0.66-3.05,2.12
		c-1.29,1.46-2.69,3.44-4.2,5.94c-1.5,2.51-3.08,5.4-4.72,8.69c-1.64,3.29-3.2,6.71-4.67,10.28c-1.47,3.57-2.8,7.11-3.99,10.62
		c-1.19,3.51-2.12,6.73-2.79,9.65c-0.03,0.49-0.12,0.83-0.28,1.02l-1.54,7.32c-0.56,2.04-1.5,3.91-2.81,5.61
		c-1.31,1.7-2.67,2.85-4.09,3.46l-4.4,1.89c-1.42,0.61-2.44,0.45-3.08-0.47c-0.64-0.92-0.7-2.34-0.2-4.23l11.95-56.4
		c0.46-2,1.36-3.82,2.69-5.48c1.33-1.65,2.7-2.78,4.12-3.39l4.4-1.89c1.42-0.61,2.46-0.49,3.13,0.37c0.66,0.85,0.74,2.23,0.24,4.12
		l-2.47,11.86c2.73-5.37,5.67-10.26,8.81-14.67c3.14-4.41,6.48-7.67,10.01-9.78c1.79-1.13,3.45-1.87,4.98-2.23
		c1.53-0.35,2.81-0.22,3.86,0.41c1.05,0.63,1.81,1.83,2.27,3.61c0.46,1.78,0.6,4.27,0.42,7.47c2.4-4.75,5-9.01,7.82-12.8
		C453.92,77.03,456.94,74.14,460.17,72.16"/>
	<path class="st1" d="M485.11,81.24c2.7-6.56,5.62-12.06,8.74-16.52c3.12-4.46,6.3-7.95,9.53-10.48c3.24-2.53,6.39-4.12,9.46-4.78
		c3.07-0.66,5.87-0.57,8.39,0.27c0.63-1.59,1.53-3,2.69-4.21c1.16-1.21,2.35-2.08,3.56-2.61l4.41-1.89
		c1.42-0.61,2.46-0.48,3.12,0.37c0.66,0.85,0.75,2.23,0.24,4.12c-0.18,0.68-0.63,2.31-1.32,4.88c-0.69,2.58-1.4,5.61-2.12,9.1
		c-0.72,3.49-1.47,7.11-2.26,10.87c-0.79,3.75-1.37,7.15-1.74,10.19c-0.62,3.86-0.76,6.53-0.43,8.01c0.33,1.48,0.95,2.14,1.85,2
		c1.14-0.13,2.56-1.52,4.24-4.16c1.68-2.64,3.4-5.9,5.16-9.77c1.76-3.87,3.45-7.95,5.08-12.25c1.63-4.3,2.97-8.17,4.01-11.62
		c0.62-2.18,1.31-3.71,2.08-4.58c0.76-0.87,1.48-1.18,2.12-0.91c0.65,0.26,1.14,0.92,1.48,1.97c0.33,1.06,0.36,2.37,0.07,3.93
		c-0.27,1.32-0.79,3.34-1.54,6.06c-0.75,2.72-1.75,5.79-2.98,9.19c-1.24,3.41-2.65,7.02-4.26,10.82c-1.6,3.81-3.32,7.43-5.15,10.85
		c-1.83,3.42-3.7,6.53-5.62,9.34c-1.91,2.8-3.9,4.88-5.95,6.24c-2.32,1.59-4.4,2.4-6.25,2.41c-1.85,0.02-3.41-0.54-4.68-1.68
		c-1.27-1.14-2.26-2.75-2.98-4.84c-0.71-2.09-1.11-4.49-1.2-7.21c-1.08,2.5-2.3,5.12-3.64,7.86c-1.35,2.73-2.82,5.32-4.41,7.74
		c-1.6,2.43-3.33,4.61-5.2,6.55c-1.86,1.94-3.81,3.34-5.84,4.21c-2.84,1.22-5.43,1.19-7.77-0.08c-2.34-1.27-4.07-3.62-5.18-7.04
		c-1.11-3.42-1.4-7.86-0.86-13.3C480.5,94.82,482.22,88.48,485.11,81.24 M495.01,84.18c-1.26,3.78-1.94,7.28-2.06,10.51
		c-0.11,3.23,0.23,5.72,1.05,7.47c0.81,1.75,2.01,2.46,3.61,2.13c1.6-0.33,3.53-2.17,5.8-5.55c1.66-2.27,3.28-5.21,4.85-8.83
		c1.57-3.61,3.05-7.36,4.43-11.26c1.39-3.89,2.63-7.7,3.74-11.41c1.1-3.71,1.97-6.78,2.61-9.22l0.76-2.85
		c-2.9-0.32-5.66,0.45-8.28,2.3c-2.62,1.85-5.01,4.25-7.16,7.21c-2.15,2.96-4.03,6.2-5.63,9.71
		C497.11,77.91,495.88,81.17,495.01,84.18"/>
	<path class="st1" d="M616.23,63.64c-1.5-3.13-6.88-3.28-16.44,1.75c-4.9,2.58-7.95,7.07-12.48,6.75
		c-3.46-0.24-1.13-12.53-0.85-14.8c0.28-2.28,1-5.28,2.16-9.02c2.12-7.63,3.34-13.64,3.67-18.04c0.33-4.4,0.02-7.56-0.93-9.5
		c-0.95-1.93-2.42-2.83-4.4-2.7c-1.98,0.14-4.2,0.97-6.66,2.5c-3.33,2.03-6.4,4.99-9.22,8.9c-2.82,3.91-5.46,8.31-7.91,13.2
		l2.14-10.09c0.5-1.89,0.42-3.27-0.24-4.12c-0.67-0.85-1.71-0.98-3.13-0.37l-4.4,1.89c-1.42,0.61-2.79,1.74-4.12,3.39
		c-1.33,1.65-2.23,3.47-2.69,5.47l-11.95,56.4c-0.5,1.9-0.44,3.31,0.2,4.23c0.64,0.93,1.66,1.08,3.08,0.48l4.4-1.89
		c1.42-0.61,2.78-1.76,4.09-3.46c1.31-1.7,2.25-3.57,2.81-5.61l1.54-7.32c0.16-0.19,0.25-0.53,0.28-1.02
		c0.95-4.48,2.44-9.47,4.46-14.95c2.02-5.48,4.17-10.61,6.45-15.36c2.28-4.75,4.44-8.71,6.51-11.88c2.06-3.16,3.66-4.69,4.78-4.57
		c1.33,0.03,1.54,1.71,0.63,5.03c-0.91,3.33-2.34,8.59-4.29,15.78c-1.59,6.08-2.31,11.18-2.15,15.31c0.15,4.13,0.89,7.26,2.23,9.39
		c1.33,2.13,3.18,3.28,5.54,3.47c2.36,0.19,4.93-0.67,7.71-2.59c1.95-1.32,5.09-4.26,7.48-6.74c6.02-6.25,10.03-6.85,11.52-4.94
		c0.06,0.07,0.08,0.17,0.12,0.25c2.03,0.78,3.55,3.1,2.2,5.57c-2.74,4.98-7.34,7.83-11.4,11.58c-0.96,0.89-2.05,1.16-3.06,1.02
		c-1.19,1.81-3.19,3.07-4.7,4.6c-1.16,1.17-2.69,0.55-3.32-0.56c-49.09,37.47-180.03,111.88-326.42,167.6l-9.2,26.83
		c1.17,0.15,2.24,1.12,1.81,2.57c-0.89,3-2.67,5.73-4.03,8.52C410.02,235.52,628.33,88.87,616.23,63.64"/>
	<path class="st2" d="M619.97,84.02c0,0-12.25,19.84-18.47,21.23l-3.62-3.97l17.09-18.55L619.97,84.02z"/>
	<path class="st3" d="M620.57,71.83c-1.5-3.13-6.14-4.57-15.7,0.46c-1.2,0.63-3.72,2.16-4.75,2.92c0.38,1.17,0.67,2.29,0.71,3.5
		c4.58-3.91,7.81-2.72,9.08-1.1c3.46,4.44-15.28,20.62-49.49,42.89c-2.43,3.52-6.09,5.63-10,6.41
		c-63.42,40-170.35,96.33-287.1,140.77l-13.24,38.61C412.24,245.64,632.72,97.16,620.57,71.83"/>
	<path class="st2" d="M611.6,81.04c0,0-12.25,19.84-18.47,21.23l-3.62-3.97l17.09-18.55L611.6,81.04z"/>
	<path class="st4" d="M616.71,64.3c-1.5-3.13-6.14-4.57-15.7,0.46c-1.2,0.63-3.72,2.16-4.75,2.92c0.38,1.17,0.67,2.29,0.71,3.5
		c4.58-3.91,7.81-2.72,9.08-1.1c3.46,4.44-15.29,20.62-49.49,42.89c-2.43,3.52-6.09,5.63-10,6.41
		c-63.42,40-170.35,96.33-287.1,140.77l-13.24,38.61C408.38,238.11,628.86,89.63,616.71,64.3"/>
	<path class="st2" d="M608.93,70.94c0,0-12.25,19.85-18.47,21.23l-3.62-3.97l17.08-18.55L608.93,70.94z"/>
	<path class="st2" d="M302.17,50.25c-36.76,5.94-53.06,50.6-57.63,95.29c-10.41,7.8-11.13,14.25-13.77,22.15
		c2.95-2.23,8.23-5.48,12.3-6.77c-0.51,18.57-9,58.47-28.18,73.54c-22.58,17.74-39.8-5.39-32.08-33.08
		c9.96,9.37,23.29,4.96,34.19-3.39c14.46-11.07,13.99-24.24,6.23-30.8c-10.1-8.54-37.09,3.44-44.2,27.13
		c-11.79-16.45-8.24-28.48-1.15-42.22c-21.37,28,0.64,45.61,0.34,46.41c-18.41,49.32,21.09,66.35,43.13,44.12
		c25.33-25.53,27.82-71.74,29.25-84.62c7.19-2.74,9.61-3.73,17.65-5.68c0,0-9.63,58.88,19.11,51.37
		c23.1-6.04,28.88-59.34,21.95-55.74c-1.33,0.69-0.14,24.08-18.49,36.17c-14.59,9.62-9.34-34.49-9.34-34.49
		c2.16-0.35,5.93,0.04,8.47,0.82c0.67-7.29,1.02-11.22,3.62-17.88c-4.41-1.85-10.27-1.06-10.27-1.06L302.17,50.25z M197.86,174.58
		c8.71-7.89,17.21-8.75,22.45-4.63c5.73,4.5,3.21,16.67-5.35,25.39c-9.22,9.4-22.51,10.27-28.74,5.62
		C181.22,197.23,187.28,184.17,197.86,174.58 M269.46,134.41c-8.52,2.3-14.17,4.1-18.14,6.61c4.48-29.08,20.58-70.93,37.26-74.94
		C288.58,66.07,274.46,112.05,269.46,134.41"/>
	<path class="st2" d="M331.76,68.16c-0.07,0.39-0.59,2.8-1.57,7.24c-0.97,4.44-2.18,9.93-3.63,16.49c-1.44,6.56-3,13.76-4.66,21.61
		c-1.67,7.85-3.25,15.34-4.75,22.46c-1.5,7.12-2.81,13.44-3.92,18.95c-1.11,5.51-1.77,9.28-1.99,11.29
		c-0.62,3.87-0.77,6.54-0.43,8.01c0.33,1.48,0.95,2.14,1.85,2c1.14-0.13,2.58-1.53,4.32-4.19c1.74-2.66,3.48-5.93,5.24-9.81
		c1.75-3.87,3.45-7.95,5.08-12.25c1.63-4.3,2.92-8.15,3.86-11.55c0.62-2.18,1.31-3.71,2.08-4.58c0.77-0.87,1.47-1.17,2.13-0.91
		c0.65,0.26,1.14,0.92,1.48,1.97c0.33,1.06,0.4,2.34,0.22,3.86c-0.28,1.32-0.81,3.35-1.61,6.09c-0.8,2.74-1.82,5.82-3.05,9.22
		c-1.23,3.41-2.63,7.01-4.18,10.79c-1.55,3.79-3.24,7.39-5.07,10.81c-1.83,3.42-3.7,6.53-5.62,9.34c-1.92,2.8-3.9,4.88-5.95,6.24
		c-2.68,1.87-5.05,2.71-7.11,2.51c-2.06-0.19-3.73-1.15-5.01-2.88c-1.28-1.73-2.15-4.03-2.6-6.89c-0.45-2.86-0.5-5.99-0.16-9.38
		c0.18-1.27,0.57-3.63,1.19-7.08c0.62-3.44,1.4-7.56,2.35-12.34c0.94-4.78,1.99-10.03,3.14-15.74c1.15-5.71,2.33-11.46,3.56-17.27
		c1.23-5.8,2.42-11.47,3.58-17.01c1.16-5.53,2.21-10.49,3.16-14.85c0.94-4.36,1.73-7.97,2.37-10.82c0.64-2.85,1.02-4.54,1.15-5.08
		c0.56-2.04,1.5-3.91,2.81-5.61c1.31-1.7,2.67-2.86,4.09-3.47l4.4-1.89c1.42-0.61,2.44-0.45,3.08,0.48
		C332.2,64.86,332.27,66.27,331.76,68.16"/>
	<path class="st2" d="M330.06,140.48c2.7-6.55,5.62-12.06,8.74-16.52c3.12-4.46,6.3-7.95,9.53-10.48c3.23-2.52,6.39-4.12,9.46-4.78
		c3.07-0.66,5.87-0.57,8.39,0.27c0.63-1.59,1.53-3,2.69-4.21c1.16-1.21,2.34-2.08,3.56-2.61l4.41-1.89
		c1.42-0.61,2.46-0.48,3.12,0.37c0.66,0.85,0.75,2.23,0.24,4.12c-0.19,0.68-0.63,2.31-1.32,4.88c-0.69,2.58-1.4,5.61-2.12,9.1
		c-0.72,3.49-1.47,7.11-2.26,10.87c-0.79,3.75-1.37,7.15-1.74,10.19c-0.62,3.86-0.76,6.53-0.43,8.01c0.33,1.48,0.95,2.14,1.85,2
		c1.14-0.13,2.56-1.52,4.24-4.16c1.68-2.64,3.4-5.9,5.16-9.77c1.76-3.87,3.45-7.95,5.08-12.25c1.63-4.3,2.97-8.17,4.01-11.61
		c0.62-2.18,1.31-3.71,2.08-4.58c0.76-0.87,1.48-1.18,2.13-0.91c0.65,0.26,1.14,0.92,1.48,1.97c0.33,1.06,0.36,2.37,0.07,3.93
		c-0.28,1.32-0.79,3.34-1.54,6.06c-0.75,2.72-1.75,5.79-2.98,9.19c-1.24,3.41-2.65,7.02-4.26,10.82c-1.6,3.81-3.32,7.43-5.15,10.85
		c-1.83,3.42-3.7,6.53-5.61,9.33c-1.92,2.8-3.9,4.89-5.95,6.25c-2.32,1.59-4.4,2.4-6.25,2.41c-1.85,0.02-3.41-0.54-4.68-1.68
		c-1.27-1.14-2.26-2.74-2.98-4.84c-0.72-2.09-1.12-4.49-1.21-7.21c-1.08,2.5-2.3,5.12-3.64,7.86c-1.35,2.73-2.82,5.32-4.41,7.74
		c-1.6,2.43-3.33,4.61-5.2,6.55c-1.86,1.94-3.81,3.34-5.84,4.21c-2.84,1.22-5.43,1.19-7.77-0.08c-2.34-1.27-4.07-3.62-5.18-7.04
		c-1.11-3.42-1.39-7.86-0.85-13.31C325.46,154.06,327.17,147.72,330.06,140.48 M339.96,143.43c-1.26,3.78-1.94,7.28-2.06,10.51
		c-0.11,3.23,0.23,5.72,1.05,7.47c0.81,1.75,2.01,2.46,3.61,2.13c1.6-0.33,3.53-2.17,5.8-5.55c1.66-2.27,3.28-5.21,4.84-8.83
		c1.57-3.61,3.05-7.36,4.43-11.26c1.39-3.89,2.63-7.69,3.74-11.41c1.11-3.71,1.97-6.78,2.61-9.21l0.76-2.85
		c-2.9-0.31-5.65,0.45-8.28,2.29c-2.63,1.85-5.01,4.25-7.16,7.21c-2.15,2.96-4.03,6.2-5.64,9.7
		C342.07,137.16,340.83,140.42,339.96,143.43"/>
	<path class="st2" d="M455.05,67.04c2.46-1.53,4.68-2.37,6.66-2.5c1.98-0.13,3.45,0.77,4.4,2.7c0.95,1.93,1.23,5.11,0.85,9.53
		c-0.38,4.42-1.63,10.45-3.76,18.07c-1.16,3.74-1.87,6.74-2.15,9.02c-0.28,2.28-0.37,4.03-0.27,5.24c0.1,1.21,0.34,1.98,0.72,2.3
		c0.37,0.32,0.79,0.45,1.24,0.37c1.14-0.13,2.56-1.52,4.24-4.16c1.68-2.64,3.41-5.9,5.16-9.77c1.76-3.87,3.45-7.95,5.08-12.25
		c1.63-4.3,2.92-8.15,3.86-11.55c0.72-2.23,1.47-3.78,2.23-4.65c0.76-0.87,1.48-1.18,2.13-0.91c0.65,0.26,1.14,0.92,1.48,1.97
		c0.33,1.06,0.4,2.34,0.22,3.86c-0.27,1.32-0.81,3.35-1.61,6.09c-0.8,2.74-1.82,5.82-3.05,9.22c-1.24,3.41-2.63,7.01-4.18,10.79
		c-1.55,3.79-3.24,7.39-5.07,10.82c-1.83,3.42-3.7,6.53-5.62,9.34c-1.92,2.8-3.9,4.89-5.96,6.24c-2.78,1.92-5.35,2.78-7.7,2.59
		c-2.36-0.18-4.2-1.34-5.54-3.47c-1.33-2.13-2.07-5.26-2.23-9.39c-0.16-4.13,0.56-9.23,2.15-15.31c1.95-7.19,3.38-12.45,4.28-15.78
		c0.91-3.33,0.7-5-0.63-5.03c-0.98-0.05-2.35,1.16-4.1,3.65c-1.75,2.49-3.63,5.73-5.64,9.71c-2.01,3.98-3.97,8.36-5.87,13.13
		c-1.91,4.78-3.53,9.37-4.87,13.79l-3.38,14.76c-0.41,1.85-1.28,3.67-2.61,5.44c-1.34,1.77-2.72,2.96-4.13,3.57l-4.41,1.89
		c-1.42,0.61-2.45,0.45-3.08-0.47c-0.64-0.92-0.7-2.34-0.2-4.23c0.57-2.88,1.16-5.95,1.8-9.22c0.5-2.74,1.12-5.76,1.86-9.08
		c0.74-3.31,1.59-6.62,2.58-9.92c1.99-7.09,3.43-12.33,4.32-15.71c0.89-3.38,0.67-5.08-0.66-5.11c-0.74-0.04-1.76,0.66-3.05,2.12
		c-1.29,1.46-2.69,3.44-4.2,5.94c-1.5,2.51-3.08,5.4-4.72,8.69c-1.65,3.29-3.21,6.71-4.67,10.28c-1.47,3.57-2.8,7.11-3.99,10.62
		c-1.2,3.51-2.12,6.73-2.79,9.65c-0.03,0.49-0.12,0.83-0.28,1.02l-1.54,7.32c-0.56,2.04-1.5,3.91-2.81,5.61
		c-1.31,1.7-2.67,2.85-4.09,3.46l-4.41,1.89c-1.42,0.61-2.44,0.45-3.08-0.48c-0.64-0.92-0.7-2.34-0.2-4.23l11.95-56.4
		c0.46-2,1.36-3.82,2.69-5.47c1.33-1.65,2.7-2.78,4.12-3.39l4.4-1.89c1.42-0.61,2.46-0.49,3.13,0.37c0.67,0.85,0.74,2.23,0.24,4.12
		l-2.47,11.85c2.73-5.37,5.67-10.26,8.81-14.67c3.14-4.41,6.48-7.67,10.01-9.78c1.79-1.13,3.45-1.87,4.98-2.23
		c1.53-0.35,2.81-0.21,3.86,0.41c1.05,0.63,1.8,1.83,2.27,3.61c0.46,1.78,0.6,4.27,0.42,7.47c2.4-4.75,5-9.01,7.82-12.8
		C448.8,71.92,451.83,69.03,455.05,67.04"/>
	<path class="st2" d="M479.99,76.12c2.7-6.56,5.62-12.06,8.74-16.52c3.12-4.46,6.3-7.95,9.53-10.48c3.23-2.52,6.39-4.12,9.46-4.78
		c3.07-0.66,5.87-0.57,8.39,0.27c0.63-1.59,1.53-3,2.69-4.21c1.16-1.22,2.34-2.09,3.56-2.61l4.41-1.89
		c1.42-0.61,2.46-0.48,3.12,0.37c0.67,0.85,0.75,2.23,0.24,4.12c-0.18,0.68-0.63,2.31-1.32,4.88c-0.69,2.58-1.4,5.61-2.12,9.1
		c-0.72,3.49-1.47,7.11-2.26,10.87c-0.79,3.75-1.36,7.15-1.74,10.19c-0.62,3.86-0.76,6.53-0.43,8.01c0.33,1.48,0.95,2.14,1.85,2
		c1.14-0.13,2.56-1.52,4.24-4.16c1.68-2.64,3.4-5.89,5.16-9.77c1.76-3.87,3.45-7.96,5.08-12.25c1.63-4.3,2.97-8.17,4.01-11.62
		c0.62-2.18,1.31-3.71,2.08-4.58c0.76-0.87,1.48-1.18,2.12-0.91c0.65,0.26,1.14,0.92,1.48,1.97c0.33,1.06,0.36,2.36,0.07,3.93
		c-0.27,1.32-0.79,3.34-1.54,6.06c-0.75,2.72-1.75,5.79-2.98,9.19c-1.23,3.41-2.65,7.02-4.26,10.82c-1.6,3.81-3.32,7.43-5.15,10.85
		c-1.83,3.42-3.7,6.53-5.62,9.34c-1.91,2.8-3.9,4.88-5.95,6.24c-2.32,1.59-4.4,2.4-6.25,2.41c-1.85,0.02-3.41-0.54-4.68-1.68
		c-1.27-1.13-2.26-2.75-2.98-4.84c-0.71-2.09-1.11-4.49-1.2-7.22c-1.08,2.5-2.3,5.12-3.64,7.86c-1.35,2.73-2.82,5.32-4.41,7.74
		c-1.6,2.43-3.33,4.61-5.19,6.55c-1.87,1.94-3.81,3.34-5.84,4.21c-2.84,1.22-5.43,1.19-7.77-0.09c-2.34-1.27-4.07-3.62-5.18-7.04
		c-1.11-3.42-1.39-7.86-0.86-13.3C475.39,89.7,477.11,83.36,479.99,76.12 M489.9,79.07c-1.26,3.78-1.94,7.28-2.06,10.51
		c-0.11,3.23,0.23,5.72,1.05,7.47c0.81,1.75,2.01,2.46,3.61,2.13c1.6-0.33,3.53-2.17,5.8-5.55c1.66-2.27,3.28-5.21,4.85-8.83
		c1.57-3.61,3.05-7.36,4.43-11.26c1.39-3.89,2.63-7.7,3.74-11.41c1.1-3.71,1.97-6.78,2.61-9.22l0.76-2.85
		c-2.9-0.31-5.66,0.45-8.28,2.3c-2.62,1.85-5.01,4.25-7.16,7.21c-2.15,2.96-4.03,6.2-5.63,9.71C492,72.8,490.76,76.06,489.9,79.07"
		/>
	<path class="st2" d="M575.2,15.47c2.46-1.53,4.68-2.37,6.66-2.5c1.98-0.13,3.45,0.77,4.4,2.7c0.95,1.93,1.26,5.1,0.93,9.5
		c-0.33,4.4-1.56,10.41-3.68,18.04c-1.16,3.74-1.87,6.74-2.16,9.02c-0.28,2.28-2.62,14.56,0.84,14.8c4.53,0.32,7.58-4.17,12.48-6.75
		c9.56-5.03,14.94-4.88,16.44-1.75c12.15,25.33-207.85,172.99-370,233.64l13.24-38.61C445.67,180.72,610.65,75.96,600.94,63.49
		c-1.49-1.91-5.49-1.31-11.52,4.94c-2.39,2.48-5.53,5.42-7.48,6.74c-2.78,1.91-5.35,2.78-7.71,2.59c-2.36-0.18-4.2-1.34-5.54-3.47
		c-1.33-2.13-2.08-5.26-2.23-9.39c-0.15-4.13,0.56-9.23,2.15-15.31c1.95-7.19,3.38-12.45,4.29-15.78c0.91-3.33,0.7-5-0.63-5.03
		c-1.13-0.11-2.72,1.41-4.78,4.57c-2.06,3.16-4.23,7.12-6.51,11.88c-2.27,4.75-4.42,9.88-6.45,15.36
		c-2.03,5.49-3.51,10.47-4.46,14.96c-0.03,0.49-0.12,0.84-0.28,1.02l-1.54,7.32c-0.56,2.04-1.5,3.91-2.81,5.61
		c-1.31,1.7-2.67,2.85-4.09,3.46l-4.4,1.89c-1.42,0.61-2.45,0.45-3.08-0.48c-0.64-0.92-0.7-2.34-0.2-4.23l11.95-56.4
		c0.46-1.99,1.35-3.82,2.69-5.47c1.33-1.65,2.7-2.78,4.12-3.39l4.41-1.89c1.42-0.61,2.46-0.49,3.13,0.37
		c0.66,0.85,0.75,2.23,0.24,4.12l-2.14,10.09c2.46-4.89,5.1-9.29,7.92-13.2C568.81,20.46,571.88,17.5,575.2,15.47"/>
</g>
</svg>
