<?xml version="1.0" standalone="no"?>
<!DOCTYPE svg PUBLIC "-//W3C//DTD SVG 20010904//EN"
 "http://www.w3.org/TR/2001/REC-SVG-20010904/DTD/svg10.dtd">
<svg version="1.0" xmlns="http://www.w3.org/2000/svg"
 width="7016.000000pt" height="1530.000000pt" viewBox="0 0 7016.000000 1530.000000"
 preserveAspectRatio="xMidYMid meet">

<g transform="translate(0.000000,1530.000000) scale(0.100000,-0.100000)"
fill="#9CA3AF" stroke="none">
<path d="M12090 13444 c-359 -22 -698 -101 -940 -219 -269 -132 -435 -276
-587 -507 -134 -203 -198 -405 -223 -694 -8 -92 -10 -1226 -8 -3899 l3 -3770
22 -46 c31 -61 78 -107 138 -135 l50 -24 865 0 865 0 50 24 c62 29 107 76 137
141 l23 50 5 3129 5 3129 573 -2729 c426 -2027 583 -2759 612 -2846 117 -353
304 -575 615 -731 268 -134 472 -172 890 -164 345 6 487 31 718 123 317 127
529 321 677 619 103 207 97 184 380 1505 65 305 167 785 225 1065 162 780 237
1135 355 1680 60 275 136 635 170 800 60 294 161 751 179 810 5 18 9 -1259 10
-3185 l1 -3215 24 -50 c29 -60 76 -107 136 -134 44 -20 62 -21 910 -21 l865 0
50 24 c60 28 107 74 138 135 l22 46 0 3865 c0 3662 -1 3871 -18 3978 -51 321
-155 538 -352 738 -120 121 -194 173 -361 257 -408 204 -873 279 -1546 248
-612 -28 -904 -100 -1146 -281 -325 -242 -494 -603 -656 -1395 -58 -285 -74
-388 -425 -2670 -187 -1215 -343 -2225 -347 -2243 -4 -18 -10 -30 -14 -25 -12
13 -35 151 -391 2333 -390 2395 -417 2551 -520 2965 -116 464 -242 728 -444
930 -282 282 -623 376 -1411 389 -142 2 -288 2 -324 0z"/>
<path d="M44422 13439 c-226 -22 -466 -90 -667 -189 -507 -249 -980 -727
-1271 -1285 -177 -339 -282 -663 -319 -986 -14 -117 -15 -383 -12 -2099 3
-2172 -2 -2002 68 -2343 183 -898 701 -1655 1429 -2088 253 -150 526 -243 842
-286 123 -17 233 -18 1428 -18 1188 0 1307 2 1445 18 469 57 781 169 1154 414
371 245 658 555 880 950 134 239 248 568 313 903 l22 115 3 1534 c4 1748 11
1604 -81 1697 -93 92 111 85 -2176 82 l-2015 -3 -50 -27 c-63 -33 -98 -70
-127 -133 l-23 -50 0 -770 0 -770 22 -46 c31 -62 78 -107 143 -138 l55 -26
1033 -3 1032 -3 0 -577 c0 -553 -1 -581 -21 -652 -54 -197 -185 -348 -393
-454 -162 -83 -133 -81 -1131 -81 -802 0 -886 2 -947 17 -327 84 -585 387
-693 813 -62 245 -60 158 -60 2086 l0 1755 43 87 c108 219 335 460 527 561
l60 31 1985 5 1985 5 46 22 c62 31 107 78 138 143 l26 55 0 760 0 760 -26 55
c-31 67 -78 115 -138 144 l-46 21 -2200 1 c-1210 1 -2237 -2 -2283 -7z"/>
<path d="M5730 11554 c-719 -66 -1428 -450 -2130 -1154 -245 -245 -441 -483
-632 -765 -340 -501 -508 -919 -589 -1460 -22 -140 -19 -599 4 -745 92 -589
311 -1094 685 -1580 204 -264 579 -658 837 -877 331 -282 663 -505 939 -633
308 -141 617 -210 944 -210 269 0 481 36 747 125 529 177 1028 501 1690 1095
88 79 554 538 1036 1020 707 705 881 885 900 925 33 69 33 171 0 235 -15 30
-182 204 -514 538 -549 550 -546 548 -667 546 -47 0 -78 -7 -110 -23 -32 -16
-369 -346 -1175 -1150 -1221 -1218 -1199 -1198 -1425 -1315 -113 -58 -222 -98
-322 -117 -92 -18 -261 -15 -337 5 -66 17 -153 59 -173 83 -9 12 296 322 1629
1656 1188 1188 1647 1654 1664 1687 16 33 23 63 23 110 1 122 14 106 -602 721
-306 306 -606 596 -665 645 -426 350 -842 552 -1275 620 -96 15 -394 26 -482
18z m303 -1809 c86 -15 199 -64 271 -117 25 -18 45 -35 46 -38 0 -3 -495 -500
-1100 -1105 -1056 -1055 -1102 -1099 -1116 -1080 -139 179 -79 615 147 1068
157 312 329 545 554 750 333 302 643 477 925 522 111 17 178 17 273 0z"/>
<path d="M21527 10989 c-82 -19 -146 -68 -185 -143 l-27 -51 0 -730 0 -730 27
-51 c31 -59 73 -98 138 -128 45 -21 46 -21 1765 -26 1934 -6 1749 3 1819 -83
60 -73 100 -171 104 -255 4 -63 1 -80 -22 -127 -48 -98 -178 -189 -321 -226
-39 -10 -327 -14 -1270 -19 -1327 -7 -1233 -3 -1415 -62 -86 -27 -227 -100
-303 -156 -84 -62 -237 -211 -314 -307 -210 -261 -369 -627 -453 -1045 -53
-262 -64 -374 -64 -635 0 -212 3 -261 27 -420 90 -592 271 -1009 571 -1323
163 -170 319 -258 535 -302 99 -20 127 -20 2392 -20 l2292 0 51 24 c60 29 73
39 109 87 61 81 58 -58 54 2366 -4 2394 -1 2268 -57 2579 -128 708 -438 1224
-923 1539 -217 141 -458 219 -752 244 -150 13 -3723 13 -3778 0z m3643 -4709
l0 -330 -1081 0 c-800 0 -1092 3 -1121 12 -130 39 -229 242 -199 411 18 103
93 204 168 227 15 4 524 9 1131 9 l1102 1 0 -330z"/>
<path d="M28979 10989 c-348 -37 -630 -219 -815 -523 -60 -99 -109 -239 -123
-356 -15 -118 -15 -5273 0 -5408 11 -106 55 -251 96 -322 34 -57 107 -136 155
-166 20 -13 64 -32 97 -44 58 -19 84 -20 574 -20 553 0 571 2 675 54 113 57
200 172 239 317 16 60 18 217 23 2351 l5 2287 34 35 c18 19 56 44 83 56 49 21
52 21 811 17 731 -4 767 -5 877 -26 384 -72 569 -226 647 -539 16 -61 17 -250
23 -2202 5 -1811 8 -2141 20 -2173 18 -51 83 -123 134 -150 l41 -22 719 -3
c805 -3 775 -5 859 68 25 23 54 62 68 92 l24 53 0 2250 c0 2119 -1 2257 -18
2365 -73 465 -254 855 -565 1213 -299 346 -741 622 -1167 732 -282 73 -177 69
-1895 71 -850 1 -1579 -2 -1621 -7z"/>
<path d="M35707 10989 c-82 -19 -146 -68 -185 -143 l-27 -51 0 -730 0 -730 27
-51 c31 -59 73 -98 138 -128 45 -21 46 -21 1765 -26 1934 -6 1749 3 1819 -83
60 -73 100 -171 104 -255 4 -63 1 -80 -22 -127 -48 -98 -178 -189 -321 -226
-39 -10 -327 -14 -1270 -19 -1327 -7 -1233 -3 -1415 -62 -86 -27 -227 -100
-303 -156 -84 -62 -237 -211 -314 -307 -210 -261 -369 -627 -453 -1045 -53
-262 -64 -374 -64 -635 0 -212 3 -261 27 -420 90 -592 271 -1009 571 -1323
163 -170 319 -258 535 -302 99 -20 127 -20 2392 -20 l2292 0 51 24 c60 29 73
39 109 87 61 81 58 -58 54 2366 -4 2394 -1 2268 -57 2579 -128 708 -438 1224
-923 1539 -217 141 -458 219 -752 244 -150 13 -3723 13 -3778 0z m3643 -4709
l0 -330 -1081 0 c-800 0 -1092 3 -1121 12 -130 39 -229 242 -199 411 18 103
93 204 168 227 15 4 524 9 1131 9 l1102 1 0 -330z"/>
<path d="M50325 10991 c-74 -19 -142 -77 -171 -146 -33 -79 -24 -140 59 -380
41 -121 482 -1419 980 -2885 498 -1466 932 -2742 965 -2837 64 -188 100 -257
180 -344 92 -100 261 -190 410 -220 50 -9 63 -15 59 -28 -3 -9 -185 -492 -406
-1075 -382 -1009 -401 -1062 -401 -1125 1 -112 57 -194 154 -220 30 -9 268
-11 861 -9 l820 3 56 23 c63 25 128 77 157 125 32 51 3382 8793 3388 8841 8
57 -17 141 -56 188 -17 20 -56 49 -88 65 l-57 28 -835 0 c-955 0 -903 4 -990
-85 -45 -46 -51 -62 -699 -1771 -360 -948 -738 -1947 -842 -2219 -201 -531
-235 -613 -252 -607 -37 12 -114 243 -777 2327 -381 1196 -701 2189 -711 2207
-28 45 -94 102 -148 127 -46 21 -52 21 -836 23 -434 1 -803 -2 -820 -6z"/>
<path d="M58913 10985 c-147 -27 -282 -88 -414 -187 -178 -134 -293 -299 -351
-503 l-23 -80 -3 -2900 c-2 -2025 1 -2916 8 -2952 20 -95 88 -170 185 -204 59
-21 1421 -21 1480 0 95 33 157 100 182 193 11 43 13 464 13 2403 0 1553 4
2362 10 2386 6 20 28 56 49 80 l39 44 625 3 c695 3 709 2 842 -61 135 -65 274
-198 318 -307 l22 -55 5 -2250 5 -2250 23 -47 c27 -55 78 -103 141 -132 45
-21 55 -21 761 -21 l715 0 57 28 c32 16 73 46 92 69 71 83 66 -109 66 2342 0
1367 4 2236 10 2278 22 153 88 248 230 331 126 73 116 72 675 72 566 0 556 1
722 -80 150 -74 304 -236 361 -380 11 -28 25 -82 31 -122 8 -51 11 -687 12
-2195 0 -1599 3 -2131 12 -2155 26 -69 73 -120 143 -154 l69 -34 710 0 710 0
57 28 c32 16 73 46 92 69 71 83 66 -114 66 2392 0 1956 -2 2274 -15 2360 -51
335 -201 681 -429 986 -91 122 -303 340 -431 443 -335 270 -738 460 -1129 531
-209 39 -354 46 -899 46 -714 -1 -920 -17 -1138 -90 -112 -37 -346 -155 -425
-213 -68 -50 -175 -152 -252 -242 l-52 -59 -93 91 c-246 243 -580 427 -887
489 -78 16 -204 18 -1505 20 -1139 2 -1434 0 -1492 -11z"/>
</g>
</svg>
