<?xml version="1.0" encoding="utf-8"?>
<!-- Generator: Adobe Illustrator 25.4.0, SVG Export Plug-In . SVG Version: 6.00 Build 0)  -->
<svg version="1.1" id="Capa_1" xmlns="http://www.w3.org/2000/svg" xmlns:xlink="http://www.w3.org/1999/xlink" x="0px" y="0px"
	 viewBox="0 0 838 312" style="enable-background:new 0 0 838 312;" xml:space="preserve">
<style type="text/css">
	.st0{fill:#FFFFFF;}
	.st1{fill:#878D96;}
	.st2{fill:#9CA3AF;}
</style>
<g>
	<path class="st0" d="M305.74,159.72c-1.81-4.3-2.8-9.21-2.8-14.52c0-10.87,4.1-20.07,11.13-25.81
		C296.92,51.88,235.76,1.94,162.93,1.94c-86.13,0-155.95,69.84-155.95,156s69.82,156,155.95,156c80.78,0,147.2-61.43,155.15-140.14
		C312.62,170.69,308.32,165.85,305.74,159.72z"/>
	<g>
		<path class="st1" d="M122.8,107.98c0,24.31,16.35,36.89,38.57,36.89c23.05,0,38.15-13,38.15-36.89
			c0-24.31-15.09-38.15-38.15-38.15C137.9,69.84,122.8,84.09,122.8,107.98z"/>
		<path class="st2" d="M69.57,247.99c-15.09-23.47-8.8-59.53,19.29-81.32c-13.84-14.67-21.38-34.8-21.38-58.69
			c0-51.14,42.33-85.52,93.9-85.52c13.84,0,27.25,2.51,38.99,7.55l0,0l7.04,5.42l-4.18-8.62l-0.11,0.05l13.5-15.46
			c-18.45-6.75-38.53-10.12-59.48-9.35C76.66,4.99,10.95,69.99,7.16,150.41C4.9,198.53,24.47,242.1,56.79,272.16
			C59.48,263.8,63.76,255.62,69.57,247.99z"/>
		<path class="st2" d="M194.49,263.09c-22.63,0-45.27,9.64-75.04,9.64c-3.77,0-7.54-0.42-10.9-0.84
			c-8.31,15.71-2.98,31.16,20.34,38.26c10.98,2.45,22.38,3.78,34.09,3.78c5.22,0,10.37-0.27,15.46-0.77
			C234.49,305.92,229.79,263.09,194.49,263.09z"/>
		<path class="st1" d="M269.08,145.2c0-25.15,13.55-45.92,33.8-56.23c-10.51-21.29-25.73-39.85-44.32-54.29l-22.16,22.15
			c11.74,14.26,18.45,31.86,18.45,51.14c0,51.14-41.92,85.1-93.48,85.1c-12.14,0-22.6-1.26-32.65-3.76l-8.83-3.67l5.62,6.5
			c-14.96,14.47-14.83,30.7,11.12,30.7c19.29,0,31.86-7.97,59.95-7.97c44.02,0,69.72,25.31,74.92,55.08
			c18.33-17.75,32.24-39.99,40.14-64.9C286.64,196.76,269.08,173.83,269.08,145.2z"/>
		<g>
			<path class="st2" d="M439.58,141.25v60.42c0,2.65-2.15,4.8-4.8,4.8H408.8c-2.65,0-4.8-2.15-4.8-4.8V88.73
				c0-2.65,2.15-4.8,4.8-4.8h19.75c1.9,0,3.62,1.12,4.39,2.86v0c1.19,2.7,4.54,3.72,6.99,2.07c6.84-4.6,15.29-6.91,25.35-6.91
				c15.81,0,28.66,5.31,38.54,15.91c9.88,10.61,14.82,24.41,14.82,41.41v62.4c0,2.65-2.15,4.8-4.8,4.8h-25.98
				c-2.65,0-4.8-2.15-4.8-4.8v-60.42c0-11.33-2.11-19.1-6.33-23.32c-4.22-4.22-9.36-6.32-15.42-6.32c-6.06,0-11.2,2.11-15.42,6.32
				C441.69,122.15,439.58,129.92,439.58,141.25z"/>
			<path class="st2" d="M570.9,83.93h14.12c2.65,0,4.8,2.15,4.8,4.8v18.08c0,2.65-2.15,4.8-4.8,4.8H570.9c-2.65,0-4.8,2.15-4.8,4.8
				v50.54c0,3.96,1.15,6.92,3.46,8.89c1.71,1.47,4.44,2.4,8.16,2.77c2.4,0.24,4.19,2.34,4.19,4.76v18.53c0,2.62-2.11,4.73-4.73,4.81
				c-16.72,0.48-28.51-3.03-35.39-10.51c-7.51-8.17-11.27-19.23-11.27-33.21v-47.43c0-2.18-1.77-3.95-3.95-3.95l0,0
				c-2.18,0-3.95-1.77-3.95-3.95V87.88c0-2.18,1.77-3.95,3.95-3.95l0,0c2.18,0,3.95-1.77,3.95-3.95v-9.24
				c0-1.84,1.05-3.52,2.71-4.32l25.98-12.56c3.19-1.54,6.89,0.78,6.89,4.32v20.95C566.1,81.78,568.25,83.93,570.9,83.93z"/>
			<path class="st2" d="M696.16,185.31c2.61,1.67,3.02,5.4,0.75,7.51c-11.25,10.43-25.86,15.63-43.81,15.63
				c-19.24,0-34.59-5.73-46.05-17.19c-11.46-11.46-17.19-26.82-17.19-46.06c0-19.5,5.76-34.91,17.29-46.25
				c11.53-11.33,26.19-17,43.98-17c17.79,0,32.45,5.67,43.98,17c11.53,11.33,17.3,26.75,17.3,46.25c0,2.3-0.27,5.52-0.8,9.64
				c-0.31,2.39-2.36,4.19-4.76,4.19l-74.87,0c-3.46,0-5.94,3.62-4.41,6.71c1.12,2.25,2.85,4.46,5.18,6.63
				c4.61,4.28,11.39,6.42,20.36,6.42c7,0,13.74-1.7,20.22-5.11c1.57-0.82,3.44-0.82,4.93,0.14L696.16,185.31z M673.34,132.95
				c3.29,0,5.63-3.24,4.57-6.34c-1.07-3.11-3.08-5.97-6.04-8.58c-4.88-4.28-11.14-6.42-18.78-6.42c-7.64,0-13.77,2.14-18.38,6.42
				c-2.91,2.7-4.87,5.68-5.89,8.92c-0.94,2.99,1.51,6,4.65,6H673.34z"/>
			<path class="st2" d="M703.91,83.93"/>
			<path class="st2" d="M747.19,83.93"/>
			<path class="st2" d="M703.91,83.93"/>
			<path class="st2" d="M747.19,83.93"/>
			<path class="st2" d="M791.57,145.07l38.51-53.54c2.28-3.17,0.01-7.6-3.9-7.6h-31.47c-1.54,0-2.99,0.74-3.89,1.99l-17.2,23.86
				c-1.92,2.66-5.87,2.66-7.79,0l-17.2-23.86c-0.9-1.25-2.35-1.99-3.89-1.99h-31.47c-3.91,0-6.18,4.43-3.9,7.6l38.51,53.54
				l-0.1,0.13l-38.44,53.68c-2.27,3.18,0,7.59,3.9,7.59h31.69c1.54,0,2.99-0.74,3.9-2l17-23.63c1.91-2.66,5.88-2.66,7.79,0l17,23.63
				c0.9,1.25,2.35,2,3.9,2h31.69c3.91,0,6.18-4.42,3.9-7.59l-38.44-53.68L791.57,145.07z"/>
			<path class="st2" d="M269.08,145.2c0-36.1,27.89-63.25,63.5-63.25s63.5,27.14,63.5,63.25c0,36.11-27.89,63.25-63.5,63.25
				S269.08,181.31,269.08,145.2z M361.96,145.2c0-12.48-5.37-22.79-14.34-28.15c-4.27-2.55-9.35-3.97-15.05-3.97
				c-17.93,0-29.63,13.69-29.63,32.12c0,5.31,0.99,10.21,2.8,14.52c4.56,10.84,14.36,17.86,26.83,17.86
				C350.26,177.58,361.96,163.88,361.96,145.2z"/>
		</g>
	</g>
</g>
</svg>
