<?xml version="1.0" encoding="utf-8"?>
<!-- Generator: Adobe Illustrator 25.4.0, SVG Export Plug-In . SVG Version: 6.00 Build 0)  -->
<svg version="1.1" id="Capa_1" xmlns="http://www.w3.org/2000/svg" xmlns:xlink="http://www.w3.org/1999/xlink" x="0px" y="0px"
	 viewBox="0 0 838 312" style="enable-background:new 0 0 838 312;" xml:space="preserve">
<style type="text/css">
	.st0{fill:#9CA3AF;}
</style>
<path class="st0" d="M759.01,234.46c-2.68,2.34-5.52,3.37-8.49,3.08c-2.96-0.29-5.52-1.81-7.63-4.52l-62.58-77.99l17.3-15.79
	l63.15,78.89c2.11,2.71,3.09,5.55,2.88,8.47C763.44,229.48,761.9,232.11,759.01,234.46z"/>
<path class="st0" d="M86.72,304.26c-3.65,0-6.62-1.15-8.93-3.5c-2.31-2.34-3.45-5.35-3.45-9.05V155.28
	c0.2-15.18,3.78-28.87,10.8-41.05c7.03-12.17,16.49-21.8,28.43-28.92c11.94-7.12,25.38-10.65,40.37-10.65
	c15.39,0,29.08,3.54,41.1,10.65c12.02,7.12,21.52,16.78,28.55,29.08c7.03,12.26,10.52,26.2,10.52,41.79
	c0,15.38-3.33,29.2-9.95,41.46s-15.72,21.96-27.25,29.08c-11.53,7.12-24.61,10.65-39.23,10.65c-12.3,0-23.55-2.67-33.75-8.02
	c-10.19-5.35-18.56-12.42-25.1-21.18v83.54c0,3.7-1.1,6.7-3.33,9.05C93.34,303.11,90.37,304.26,86.72,304.26z M153.93,214.88
	c10.76,0,20.39-2.51,28.83-7.61c8.45-5.06,15.15-12.05,20.06-21.02c4.91-8.97,7.35-19,7.35-30.11c0-11.31-2.44-21.39-7.35-30.23
	c-4.91-8.84-11.57-15.88-20.06-21.02c-8.45-5.14-18.07-7.73-28.83-7.73c-10.4,0-19.86,2.59-28.43,7.73
	c-8.57,5.18-15.23,12.17-20.06,21.02c-4.79,8.88-7.23,18.96-7.23,30.23c0,11.11,2.4,21.14,7.23,30.11
	c4.79,8.97,11.49,15.96,20.06,21.02C134.07,212.37,143.53,214.88,153.93,214.88z"/>
<path class="st0" d="M307.35,235.94c-7.88,0-14.94-2.18-21.2-6.58c-6.25-4.4-11.09-10.45-14.58-18.26
	c-3.45-7.77-5.2-16.74-5.2-26.86V20.04c0-3.7,1.1-6.66,3.33-8.93c2.19-2.22,5.16-3.37,8.81-3.37c3.66,0,6.58,1.11,8.81,3.37
	c2.19,2.22,3.33,5.22,3.33,8.93v164.2c0,7.98,1.58,14.52,4.75,19.58c3.17,5.06,7.15,7.61,11.98,7.61h7.23c3.25,0,5.85,1.11,7.8,3.37
	c1.91,2.22,2.88,5.22,2.88,8.93c0,3.7-1.38,6.66-4.18,8.93c-2.8,2.22-6.5,3.37-11.09,3.37h-2.68V235.94z"/>
<path class="st0" d="M413.22,237.38c-15.76,0-29.69-3.46-41.83-10.37c-12.1-6.91-21.64-16.49-28.55-28.79
	c-6.9-12.26-10.4-26.28-10.4-42.08c0-15.96,3.25-30.03,9.79-42.2c6.54-12.17,15.51-21.76,26.97-28.79
	c11.45-6.99,24.65-10.53,39.68-10.53c14.82,0,27.57,3.37,38.38,10.08c10.76,6.7,19.09,16.04,24.93,27.89
	c5.85,11.89,8.81,25.42,8.81,40.6c0,3.33-1.06,6.01-3.17,8.02c-2.11,2.06-4.79,3.08-8.08,3.08H349.18v-20.15h121.71l-12.1,8.84
	c0-10.69-2.03-20.36-6.05-28.92c-4.02-8.56-9.75-15.3-17.18-20.15c-7.39-4.85-16.28-7.32-26.68-7.32c-10.96,0-20.47,2.59-28.55,7.73
	c-8.08,5.18-14.34,12.22-18.76,21.18c-4.43,8.97-6.62,19.17-6.62,30.68c0,11.48,2.48,21.68,7.51,30.52
	c4.99,8.88,11.86,15.88,20.63,21.02c8.73,5.18,18.8,7.73,30.13,7.73c6.54,0,13.2-1.15,20.06-3.5c6.82-2.35,12.26-5.27,16.28-8.76
	c2.31-1.93,4.95-2.96,7.92-3.08c2.96-0.08,5.52,0.74,7.63,2.47c2.68,2.55,4.1,5.31,4.18,8.31c0.08,3-1.1,5.59-3.61,7.73
	c-6.54,5.47-14.66,9.91-24.37,13.45C431.62,235.65,422.24,237.38,413.22,237.38z"/>
<path class="st0" d="M524.82,235.94c-3.86,0-6.82-1.07-8.93-3.21c-2.11-2.14-3.17-5.14-3.17-9.05V88.4c0-3.91,1.06-6.91,3.17-9.05
	c2.11-2.14,5.08-3.21,8.93-3.21s6.82,1.07,8.93,3.21c2.11,2.14,3.17,5.18,3.17,9.05v135.24c0,3.91-1.06,6.91-3.17,9.05
	C531.64,234.87,528.67,235.94,524.82,235.94z M523.68,136.89c0.37-11.89,3.41-22.54,9.1-32c5.68-9.46,13.12-16.91,22.34-22.33
	c9.22-5.43,19.49-8.19,30.86-8.19c9.79,0,17.26,1.44,22.34,4.4c5.08,2.92,6.98,6.91,5.6,11.97c-0.57,2.92-1.79,4.94-3.61,6.01
	c-1.83,1.07-3.94,1.6-6.34,1.6c-2.4,0-5.16-0.08-8.2-0.29c-11.17-1.56-21.16-0.9-30.01,1.89c-8.85,2.84-15.88,7.44-21.04,13.86
	c-5.2,6.42-7.8,14.11-7.8,23.08H523.68z"/>
<path class="st0" d="M662.97,180.7l-14.98-16.37l95.15-87.03c2.48-2.34,5.2-3.41,8.08-3.21c2.88,0.21,5.48,1.56,7.8,4.07
	c2.31,2.55,3.37,5.26,3.17,8.19c-0.2,2.92-1.54,5.47-4.02,7.61L662.97,180.7z"/>
<path class="st0" d="M653.75,235.94c-3.65,0-6.58-1.11-8.81-3.37c-2.19-2.22-3.33-5.22-3.33-8.93V20.04c0-3.7,1.1-6.66,3.33-8.93
	c2.19-2.22,5.16-3.37,8.81-3.37c3.45,0,6.29,1.11,8.49,3.37c2.19,2.22,3.33,5.22,3.33,8.93v203.6c0,3.7-1.1,6.66-3.33,8.93
	C660.05,234.79,657.2,235.94,653.75,235.94z"/>
</svg>
