<?xml version="1.0" encoding="utf-8"?>
<!-- Generator: Adobe Illustrator 25.4.0, SVG Export Plug-In . SVG Version: 6.00 Build 0)  -->
<svg version="1.1" id="Capa_1" xmlns="http://www.w3.org/2000/svg" xmlns:xlink="http://www.w3.org/1999/xlink" x="0px" y="0px"
	 viewBox="0 0 838 312" style="enable-background:new 0 0 838 312;" xml:space="preserve">
<style type="text/css">
	.st0{fill:#9CA3AF;}
</style>
<g>
	<polygon class="st0" points="152.22,256 200.43,256.57 200.43,119.44 152.22,119.44 	"/>
	<path class="st0" d="M776.28,119.42c-0.01,0-0.02,0-0.03,0c-0.01,0-0.02,0-0.03,0c-35.53,0.01-49.09,16.65-49.09,16.65
		s-13.56-16.64-49.09-16.65c-0.01,0-0.02,0-0.03,0c-0.01,0-0.02,0-0.03,0c-35.54,0.01-61.72,23.89-61.72,52.14v85.01h48.94
		c0,0-0.09-80.81,0.01-81.1c0.38-3.08,1.46-5.89,3.06-8.29c3.41-5.12,9.21-8.39,15.73-8.39c6.38,0,12.01,3.32,15.41,8.39
		c2.13,3.17,3.39,7.03,3.39,11.19v78.23l48.67-0.03v-78.2c0-4.16,1.26-8.02,3.39-11.19c3.4-5.07,9.03-8.39,15.41-8.39
		c6.51,0,12.31,3.27,15.73,8.39c1.6,2.4,2.68,5.21,3.06,8.29c0.1,0.29,0.01,81.1,0.01,81.1H838v-85.01
		C838,143.3,811.82,119.43,776.28,119.42z"/>
	<g>
		<path class="st0" d="M505.74,192.17c0.03,12.83,8.1,22.72,19.85,24.72c15.17,2.59,28.12-8.52,28.18-24.41
			c0.1-28.7,0.03-44.37,0.03-73.06h48.21l0.14,69.64c0.85,35.69-21.36,60.53-57.14,66.19c-20.64,3.27-40.66,0.88-58.87-10.2
			c-17.89-10.88-27.81-27.27-28.32-47.96c-0.81-32.84-0.44-44.8-0.44-77.67h0.01h48.32L505.74,192.17z"/>
	</g>
	<path class="st0" d="M352.04,212.33c0-20.03-13.36-36.91-31.64-42.3c-3.74-1.18-7.71-1.82-11.84-1.82h-41.14
		c-2.15-0.46-3.76-2.37-3.76-4.65c0-2.63,2.13-4.76,4.76-4.76h55.78l25.3-39.36h-91.34c-4.13,0-8.1,0.64-11.84,1.82
		c-18.28,5.39-31.64,22.27-31.64,42.3s13.36,36.91,31.64,42.3c3.74,1.18,7.71,1.82,11.84,1.82h41.12c2.15,0.46,3.76,2.37,3.76,4.65
		c0,2.63-2.13,4.76-4.76,4.76l-58.91,0.14l-25.3,39.22v0.14h94.49c5.88,0,11.43-1.32,16.44-3.63
		C340.87,246.28,352.04,230.63,352.04,212.33z"/>
	<path class="st0" d="M137.97,212.33c0-20.03-13.36-36.91-31.64-42.3c-3.74-1.18-7.71-1.82-11.84-1.82H53.36
		c-2.15-0.46-3.76-2.37-3.76-4.65c0-2.63,2.13-4.76,4.76-4.76h55.78l25.3-39.36H44.11c-4.13,0-8.1,0.64-11.84,1.82
		c-18.28,5.39-31.64,22.27-31.64,42.3s13.36,36.91,31.64,42.3c3.74,1.18,7.71,1.82,11.84,1.82h41.12c2.15,0.46,3.76,2.37,3.76,4.65
		c0,2.63-2.13,4.76-4.76,4.76l-58.91,0.14L0,256.45v0.14h94.49c5.88,0,11.43-1.32,16.44-3.63
		C126.81,246.28,137.97,230.63,137.97,212.33z"/>
	<path class="st0" d="M152.22,61.99h48.21v32.95c0,8.43-6.83,15.26-15.26,15.26h-32.95V61.99z"/>
	<g>
		<path class="st0" d="M366.33,216.97v39.59h48.92v-88.52C388.23,168.05,366.33,189.95,366.33,216.97z"/>
		<path class="st0" d="M439.19,94.78c1.23,0,3.95,0.02,3.95,0.02V55.41h-12.76c-44.53,0-64.05,40.12-64.05,60.68v42.71h76.81v-15.78
			v-23.6h-27.88c0,0,0,0,0-0.01C415.27,106.2,425.98,94.78,439.19,94.78z"/>
	</g>
</g>
</svg>
