<?xml version="1.0" encoding="utf-8"?>
<!-- Generator: Adobe Illustrator 25.4.0, SVG Export Plug-In . SVG Version: 6.00 Build 0)  -->
<svg version="1.1" id="Capa_1" xmlns="http://www.w3.org/2000/svg" xmlns:xlink="http://www.w3.org/1999/xlink" x="0px" y="0px"
	 viewBox="0 0 838 312" style="enable-background:new 0 0 838 312;" xml:space="preserve">
<style type="text/css">
	.st0{fill:#9CA3AF;}
</style>
<g>
	<path class="st0" d="M262.59,226.22c-23.93,14.15-35.07,39.64-24.88,56.93c10.18,17.29,37.84,19.83,61.76,5.68
		c23.93-14.15,35.07-39.64,24.88-56.93C314.17,214.61,286.52,212.07,262.59,226.22z M286.83,284.13
		c-17.61,10.41-37.95,8.54-45.45-4.18c-7.49-12.72,0.7-31.48,18.31-41.89c17.61-10.41,37.95-8.54,45.45,4.18
		C312.64,254.96,304.44,273.72,286.83,284.13z"/>
	<path class="st0" d="M150.72,226.22c-23.93,14.15-35.07,39.64-24.88,56.93c10.18,17.29,37.84,19.83,61.76,5.68
		c23.93-14.15,35.07-39.64,24.88-56.93C202.3,214.61,174.64,212.07,150.72,226.22z M174.96,284.13
		c-17.61,10.41-37.95,8.54-45.45-4.18c-7.49-12.72,0.7-31.48,18.31-41.89c17.61-10.41,37.95-8.54,45.45,4.18
		C200.77,254.96,192.57,273.72,174.96,284.13z"/>
	<path class="st0" d="M44.03,226.22c-23.93,14.15-35.07,39.64-24.88,56.93c10.18,17.29,37.84,19.83,61.76,5.68
		c23.93-14.15,35.07-39.64,24.88-56.93C95.61,214.61,67.96,212.07,44.03,226.22z M68.28,284.13c-17.61,10.41-37.95,8.54-45.45-4.18
		c-7.49-12.72,0.7-31.48,18.31-41.89c17.61-10.41,37.95-8.54,45.45,4.18C94.08,254.96,85.88,273.72,68.28,284.13z"/>
	<path class="st0" d="M48.21,72.36l-21.97,91.37c-5.49,24.95,1.83,35.23,1.83,35.23c6.23,11.74,20.14,11.74,20.14,11.74h91.18
		l4.39-19.45H81.54c-22.7-0.73-16.11-22.75-16.11-22.75l8.42-36.33h62.62l2.56-18.35H79.71l11.72-41.47H48.21z"/>
	<path class="st0" d="M189.2,72.36l-21.97,91.37c-5.49,24.95,1.83,35.23,1.83,35.23c6.23,11.74,20.14,11.74,20.14,11.74h91.18
		l4.39-19.45h-62.25c-22.7-0.73-16.11-22.75-16.11-22.75l8.42-36.33h62.62l2.56-18.35h-59.32l11.72-41.47H189.2z"/>
	<path class="st0" d="M413.92,191.74H306.5l-4.39,18.96h117.06c32.79,0,41.14-17.25,41.14-17.25c8.99-17.25,10.01-34.74,10.01-34.74
		c2.69-25.2-26.37-23.97-26.37-23.97h-73.51c-11.44-0.98-9.8-15.41-9.8-15.41c-0.06-19.33,19.59-22.26,19.59-22.26h97.53l4.39-18.96
		H365.09c-17.09,0-26.37,7.22-26.37,7.22c-16.84,12.23-20.99,36.21-20.99,36.21c-4.15,28.62,20.99,29.85,20.99,29.85h29.05h46.14
		c24.9,0,16.11,24.71,16.11,24.71C427.59,191.5,413.92,191.74,413.92,191.74z"/>
	<path class="st0" d="M828.84,115.2c-1.83-56.14-122.58-74.77-122.58-74.77c-65.91-13.94-155.63-17.61-155.63-17.61
		c-23.44-0.73-189.32-4.4-189.32-4.4l-347.15-4.4v31.19l533.17,8.07c47.24,1.47,99.42,6.42,99.42,6.42
		c48.06,8.26,67.01,21.8,67.01,21.8c43.76,23.27,39.73,47.92,39.73,47.92c0,27.34-25.88,41.53-25.88,41.53
		c-36.25,22.63-80.68,23.79-80.68,23.79l19.04-73.76c5.74-20,1.27-27.27,1.27-27.27c-5.79-13.03-34.78-13.64-34.78-13.64H525.73
		l-5.86,18.35h97.41c19.16-0.12,15.22,11.86,15.22,11.86l-2.46,10.24l-90.27,1.02c-27.82,2.02-32.84,24.71-32.84,24.71l-10.25,40.36
		c-5.13,24.22,21.73,24.1,21.73,24.1h131.83c39.3-1.1,89.59-18.96,89.59-18.96C838.97,161.1,828.84,115.2,828.84,115.2z
		 M614.33,193.75l-68.34-0.05c0,0-14.95-0.43-9.03-20.55l6.59-20.55c0,0,2.69-14.89,24.66-13.91l59.05,0.05L614.33,193.75z"/>
	<path class="st0" d="M388.87,249.55l2.12-8.62h15.78l0.65-4.36h-14.95l2.95-9.84h-10.89L379,248.42c-1.38,5.92,0.46,8.36,0.46,8.36
		c1.57,2.79,5.07,2.79,5.07,2.79h22.97l1.11-4.62h-15.68C387.21,254.78,388.87,249.55,388.87,249.55z"/>
	<path class="st0" d="M481.78,226.72l-28.83,0l-0.18,4.61h25.02c4.23,0,4.17,2.31,4.17,2.31l-0.02,3.56l-0.43,0.01l-24.11,0.19
		c-7.31,0.51-8.6,5.96-8.6,5.96l-2.69,10.15c-1.35,6.09,5.71,6.06,5.71,6.06h32.84l0.93-4.01l5-18.54c1.25-6.04,0-7.15,0-7.15
		C489.24,226.4,481.78,226.72,481.78,226.72z M477.02,255.31l-17.96-0.01c0,0-3.93-0.11-2.37-5.17l1.73-5.17c0,0,0.71-3.74,6.48-3.5
		l15.52,0.01L477.02,255.31z"/>
	<path class="st0" d="M616.87,228.51c-4.26,3.03-5.31,8.97-5.31,8.97c-1.05,7.09,5.31,7.39,5.31,7.39h7.34h11.67
		c6.3,0,4.07,6.12,4.07,6.12c-0.62,3.82-4.07,3.88-4.07,3.88h-27.16l-1.11,4.7h29.6c8.29,0,10.4-4.27,10.4-4.27
		c2.27-4.27,2.53-8.6,2.53-8.6c0.68-6.24-6.67-5.94-6.67-5.94h-18.59c-2.89-0.24-2.48-3.82-2.48-3.82
		c-0.02-4.79,4.95-5.51,4.95-5.51h24.66l1.11-4.7h-29.6C619.21,226.72,616.87,228.51,616.87,228.51z"/>
	<polygon class="st0" points="493.77,259.62 502.41,259.57 508.79,226.72 500.28,226.72 	"/>
	<polygon class="st0" points="511.35,259.59 519.99,259.54 528.2,215.75 519.68,215.75 	"/>
	<path class="st0" d="M610.04,226.72h-21.88c-5.18,0-7.62,7.38-8.48,10.86h-0.04l-0.21,1.07c-0.09,0.44-0.14,0.71-0.14,0.71
		l-3.96,20.23l8.64-0.05l3.98-20.88c1.84-7.76,7.16-7.77,7.16-7.77l13.64-0.09L610.04,226.72z"/>
	<path class="st0" d="M425.03,226.71c-5.18,0-7.62,7.38-8.48,10.86h-0.04l-0.21,1.07c-0.09,0.44-0.14,0.71-0.14,0.71l-3.96,20.23
		l8.64-0.05l3.98-20.88c1.84-7.76,7.16-7.77,7.16-7.77l13.64-0.09l1.28-4.07H425.03z"/>
	<path class="st0" d="M569.21,226.11l-15.2,0c0,0-11.64-0.14-14.46,1.01c-3.85,1.56-4.74,5.62-4.74,5.62l-4.47,16.56
		c-1.25,6.04,0,7.15,0,7.15c1.35,3.46,8.8,3.14,8.8,3.14h28.83l0.18-4.61h-25.02c-4.23,0-4.17-2.31-4.17-2.31l1.15-6.46l0.43-0.01
		l24.11-0.19c7.31-0.51,7.84-4.44,7.84-4.44l2.33-8.77C576.63,226.72,569.21,226.11,569.21,226.11z M564.24,236.19l-1.51,3.48
		c0,0-0.71,3.74-6.48,3.5l-15.52-0.01l3.17-12.14l17.96,0.01C561.87,231.02,565.8,231.13,564.24,236.19z"/>
</g>
</svg>
